<?xml version="1.0" encoding="utf-8"?>
<!-- Generator: Adobe Illustrator 25.2.0, SVG Export Plug-In . SVG Version: 6.00 Build 0)  -->
<svg version="1.1" id="Layer_1" xmlns="http://www.w3.org/2000/svg" xmlns:xlink="http://www.w3.org/1999/xlink" x="0px" y="0px"
	 viewBox="0 0 50 70" style="enable-background:new 0 0 50 70;" xml:space="preserve">
<style type="text/css">
	.st0{fill:#FFFFFF;stroke:#000000;stroke-miterlimit:10;}
</style>
<path class="st0" d="M47.7,35.1c-0.7,0-1.4,0-2.1-0.1c0.7-0.1,1.4-0.1,2.1-0.1l-2.9,0C26.6,32.6,25.1,8.4,25,3.7l0-0.8
	c0,0,0,0.1,0,0.2c0-0.1,0-0.2,0-0.2l0,0.8c-0.1,4.7-1.6,28.9-19.8,31.2l-2.9,0c0.7,0,1.4,0,2.1,0.1c-0.7,0.1-1.4,0.1-2.1,0.1l2.9,0
	C23.4,37.4,24.9,61.6,25,66.3l0,0.8c0,0,0-0.1,0-0.2c0,0.1,0,0.2,0,0.2l0-0.8c0.1-4.7,1.6-28.9,19.8-31.2L47.7,35.1z"/>
</svg>
